Coordinates
version=1
nRows=14
nColumns=40
inDegrees=yes

Units are S.I. units (second, meters, Newtons, ...)
Angles are in degrees.

endheader
time	pelvis_tilt	pelvis_list	pelvis_rotation	pelvis_tx	pelvis_ty	pelvis_tz	hip_flexion_r	hip_adduction_r	hip_rotation_r	knee_angle_r	knee_angle_r_beta	ankle_angle_r	subtalar_angle_r	mtp_angle_r	hip_flexion_l	hip_adduction_l	hip_rotation_l	knee_angle_l	knee_angle_l_beta	ankle_angle_l	subtalar_angle_l	mtp_angle_l	lumbar_extension	lumbar_bending	lumbar_rotation	arm_flex_r	arm_add_r	arm_rot_r	elbow_flex_r	pro_sup_r	wrist_flex_r	wrist_dev_r	arm_flex_l	arm_add_l	arm_rot_l	elbow_flex_l	pro_sup_l	wrist_flex_l	wrist_dev_l
      4.57000000	     -3.68517549	     -5.01523167	    -11.38131039	      0.92871644	      0.92823746	      0.44646558	     25.30703898	      0.20408149	     -7.92064340	     20.90758671	     20.90758671	      4.49776804	      1.82394378	      0.30537305	      6.12665033	     -3.20681370	    -12.31564502	     20.32328812	     20.32328812	     19.28561176	    -15.41078124	      3.47899705	    -11.82510233	      8.73792862	      1.85097681	    -15.80346970	    -11.48016650	    -20.86420636	     28.22001984	     47.17092756	      0.00000000	      0.00000000	     31.79716301	    -21.46376867	     -3.57690336	     64.96520345	     47.45745407	      0.00000000	      0.00000000
      4.59071429	     -3.91150813	     -4.85501724	    -11.77078790	      0.92872245	      0.92731366	      0.44948663	     24.74953718	      0.48386969	     -8.21939865	     18.46855472	     18.46855472	      3.96274926	      3.62233750	      0.94537411	      5.61129726	     -3.15474164	    -12.73869145	     19.83796413	     19.83796413	     19.45801553	    -15.20900574	      3.18452697	    -11.62436139	      8.73059364	      1.99845702	    -16.17253186	    -11.36689742	    -20.96112103	     28.32751273	     47.16264914	      0.00000000	      0.00000000	     32.68910916	    -21.79165821	     -4.08149726	     66.09075911	     47.52073438	      0.00000000	      0.00000000
      4.61142857	     -4.05213804	     -4.66084062	    -12.09887716	      0.92915599	      0.92632690	      0.45253527	     24.16949401	      0.61100064	     -8.72530105	     16.63829212	     16.63829212	      3.58454647	      5.49990458	      1.30313956	      4.96846096	     -3.04899223	    -13.23658688	     19.31261812	     19.31261812	     19.65648336	    -14.83485304	      2.78592001	    -11.55938344	      8.74092301	      2.24743055	    -16.41867219	    -11.22331271	    -21.09010067	     28.55315309	     47.15192773	      0.00000000	      0.00000000	     33.33104661	    -21.86874126	     -4.70567661	     67.55935125	     47.59578241	      0.00000000	      0.00000000
      4.63214286	     -4.32092526	     -4.42000775	    -12.44619319	      0.92966888	      0.92487658	      0.45589715	     24.17102528	      0.71164604	     -8.81744745	     16.01061718	     16.01061718	      3.35035347	      6.19833927	      1.36529280	      4.59978903	     -2.94659186	    -13.60215774	     19.04204056	     19.04204056	     19.90664150	    -14.75790965	      2.57987106	    -11.29134268	      8.71139258	      2.41778635	    -16.45834139	    -11.24971212	    -21.16373611	     28.67861560	     47.14848489	      0.00000000	      0.00000000	     34.11050079	    -22.25882252	     -5.17117919	     68.40113398	     47.64901545	      0.00000000	      0.00000000
      4.65285714	     -4.34915656	     -4.31001772	    -12.70346522	      0.93099321	      0.92394667	      0.45940040	     23.60480248	      0.80483227	     -9.38767691	     15.26743045	     15.26743045	      2.62870911	      7.48362698	     -0.41294629	      3.72970218	     -2.94113577	    -14.17015173	     18.45186237	     18.45186237	     19.83057066	    -14.23006491	      1.25181224	    -11.37141405	      8.82520489	      1.85910157	    -16.14498962	    -11.25866547	    -21.84649107	     29.71076235	     47.11397548	      0.00000000	      0.00000000	     32.82812027	    -22.40732811	     -8.24243176	     72.61243962	     47.92533376	      0.00000000	      0.00000000
      4.67357143	     -4.49891971	     -4.15000404	    -12.94496719	      0.93228575	      0.92291058	      0.46321459	     23.49633471	      0.93917355	     -9.19095149	     15.39310774	     15.39310774	      2.56901086	      7.34094685	     -0.84105290	      3.09973551	     -2.88838188	    -14.43060048	     18.03811335	     18.03811335	     20.03633052	    -14.08571939	      1.20454097	    -11.19265490	      8.88686636	      2.10697795	    -15.91420093	    -11.26570451	    -21.83384143	     29.63431931	     47.11070601	      0.00000000	      0.00000000	     33.28226548	    -22.42182973	     -8.60695998	     73.34974312	     47.96576995	      0.00000000	      0.00000000
      4.69428571	     -4.64975465	     -4.02230004	    -13.11231900	      0.93381668	      0.92198105	      0.46722783	     23.49889646	      1.07108667	     -8.89127431	     15.96694964	     15.96694964	      2.60212486	      6.85909061	     -1.58678215	      2.50513499	     -2.90234833	    -14.64233932	     17.72718379	     17.72718379	     20.23286387	    -13.88686743	      1.17008506	    -11.00199650	      9.00064475	      2.28816715	    -15.62515654	    -11.33501321	    -21.86551734	     29.60167276	     47.10949435	      0.00000000	      0.00000000	     33.43817834	    -22.39352245	     -9.11550240	     74.19302658	     48.01540809	      0.00000000	      0.00000000
      4.71500000	     -4.84732941	     -3.92470861	    -13.22642938	      0.93548816	      0.92114101	      0.47153101	     23.43261580	      1.33686374	     -8.20023092	     16.39439247	     16.39439247	      1.87398053	      5.41763159	     -4.44531210	      2.00418925	     -3.01619089	    -14.90253856	     17.53860718	     17.53860718	     20.45733161	    -13.56583655	      1.18407075	    -10.82247315	      9.11703670	      1.61950534	    -14.58551705	    -11.50213699	    -22.05799086	     29.19942959	     47.10676349	      0.00000000	      0.00000000	     32.39160910	    -22.63121236	    -11.39702669	     76.70924599	     48.19794982	      0.00000000	      0.00000000
      4.73571429	     -4.96941768	     -3.80169427	    -13.24779322	      0.93729875	      0.92060006	      0.47588271	     23.53626199	      1.41061322	     -7.89464406	     17.47974443	     17.47974443	      2.28925203	      4.73787059	     -4.95185667	      1.41596581	     -3.06782246	    -14.99185852	     17.29632568	     17.29632568	     20.53507687	    -13.39609544	      1.27412259	    -10.65649074	      9.19778335	      1.72746675	    -14.26731550	    -11.61753587	    -22.04793051	     29.16326267	     47.10422376	      0.00000000	      0.00000000	     32.52336306	    -22.58899544	    -11.57225249	     77.04003790	     48.21500179	      0.00000000	      0.00000000
      4.75642857	     -5.16313689	     -3.81422104	    -13.16078461	      0.93916244	      0.92034712	      0.48037842	     23.45310925	      1.62828469	     -7.75724175	     18.18003413	     18.18003413	      2.65512167	      4.29598273	     -5.23247425	      0.96202808	     -3.32783535	    -14.97388588	     17.19442977	     17.19442977	     20.52144486	    -13.30441511	      1.35844684	    -10.42732942	      9.43193730	      1.77193725	    -13.94524559	    -11.74464992	    -22.05366623	     29.23356842	     47.10261297	      0.00000000	      0.00000000	     32.57763041	    -22.47250975	    -11.64112469	     77.23696351	     48.22290777	      0.00000000	      0.00000000
      4.77714286	     -5.29166133	     -3.55712838	    -13.06765873	      0.94097648	      0.92005984	      0.48508056	     23.72540878	      1.64951856	     -6.96606789	     19.53971782	     19.53971782	      3.30522802	      2.70320250	     -5.55706692	      0.51706285	     -3.32789237	    -15.11781248	     17.13112189	     17.13112189	     20.51071136	    -12.93755201	      1.50746105	    -10.25198900	      9.23537760	      1.70397257	    -13.60683116	    -11.84652113	    -22.10583314	     29.18525540	     47.10231682	      0.00000000	      0.00000000	     32.37783125	    -22.35521068	    -12.19419019	     77.92554027	     48.26855263	      0.00000000	      0.00000000
      4.79785714	     -5.46691383	     -3.53587058	    -12.85067488	      0.94280026	      0.92017373	      0.48987437	     23.64705705	      1.91682391	     -6.47462414	     20.26306572	     20.26306572	      3.89389702	      1.51191854	     -5.38276691	      0.21750951	     -3.67124504	    -15.20563285	     17.33224292	     17.33224292	     20.51415095	    -12.53025040	      1.68716959	    -10.05291472	      9.32089457	      1.33042484	    -13.09888231	    -12.03140899	    -22.20041867	     29.06485524	     47.10129343	      0.00000000	      0.00000000	     31.79787127	    -22.24314426	    -13.04089439	     78.78216494	     48.33195621	      0.00000000	      0.00000000
      4.81857143	     -5.59084621	     -3.52506508	    -12.57742001	      0.94460420	      0.92060506	      0.49465745	     23.41217641	      2.10198579	     -6.38749220	     20.81456233	     20.81456233	      4.70483053	      1.07091664	     -4.74867301	     -0.05667458	     -4.05328747	    -15.29186163	     17.66769671	     17.66769671	     20.47585183	    -12.08356333	      1.88829625	     -9.91403911	      9.35369958	      0.86247774	    -12.49694718	    -12.26832040	    -22.25524921	     28.73019084	     47.09082011	      0.00000000	      0.00000000	     31.11368430	    -22.15316315	    -13.91221524	     79.55829671	     48.38985048	      0.00000000	      0.00000000
      4.83928571	     -5.74163877	     -3.42613296	    -12.27564542	      0.94633404	      0.92123214	      0.49940820	     23.03478720	      2.18729609	     -6.46106027	     20.95705013	     20.95705013	      5.23431504	      0.91986595	     -4.90179563	     -0.30453630	     -4.30481214	    -15.20228586	     17.87061893	     17.87061893	     20.11505761	    -11.98366805	      1.99413905	     -9.71251539	      9.25642939	      0.81393833	    -12.40685962	    -12.42713399	    -22.27151723	     28.76208067	     47.09104981	      0.00000000	      0.00000000	     30.92341356	    -21.91526233	    -13.83306391	     79.52687001	     48.38233754	      0.00000000	      0.00000000
